<!-- Created with Inkscape (http://www.inkscape.org/) -->
<svg id="svg2" xmlns:rdf="http://www.w3.org/1999/02/22-rdf-syntax-ns#" xmlns="http://www.w3.org/2000/svg" viewBox="0 0 381.85 192.44" version="1.1" xmlns:cc="http://creativecommons.org/ns#" xmlns:dc="http://purl.org/dc/elements/1.1/">
 <metadata id="metadata4">
  <rdf:RDF>
   <cc:Work rdf:about="">
    <dc:format>image/svg+xml</dc:format>
    <dc:type rdf:resource="http://purl.org/dc/dcmitype/StillImage"/>
    <dc:title/>
   </cc:Work>
  </rdf:RDF>
 </metadata>
 <g id="g6" transform="translate(-108.5931,-489.71875)">
  <path id="path8" d="m299.5,489.72c-37.307,0-67.886,28.699-70.938,65.219-15.803-14.807-38.158-22.237-61.125-18.188-38.734,6.8298-64.58,43.766-57.75,82.5,6.8298,38.734,43.766,64.58,82.5,57.75,32.54-5.7378,56.005-32.706,58.625-64.156,12.738,11.94,29.847,19.281,48.688,19.281,18.748,0,35.782-7.2583,48.5-19.094,0.93356,33.087,24.973,62.059,58.844,68.031,38.734,6.8298,75.67-19.016,82.5-57.75,6.8298-38.734-19.016-75.67-57.75-82.5-22.881-4.0345-45.145,3.3344-60.938,18.031-1.1133-38.358-32.529-69.125-71.156-69.125zm4.2812,27.875c4.0877,0.00008,8.0219,0.5094,11.781,1.5312,3.7957,1.022,7.4077,2.5552,10.875,4.5625v16.906c-2.9564-2.8468-6.111-4.9828-9.4688-6.4062-3.3578-1.4598-6.8243-2.1874-10.438-2.1875-4.6352,0.00007-8.6215,1.1435-11.906,3.4062-3.2483,2.2264-5.6701,5.4746-7.3125,9.7812h29.5l-4.7188,10.688h-26.969c-0.073,0.58401-0.15103,1.1868-0.1875,1.8438-0.00003,0.657-0.00003,1.6549,0,2.9688-0.00003,0.47451-0.00003,1.0098,0,1.5938,0.0365,0.5475,0.0885,1.1296,0.125,1.75h23.469l-4.8438,10.656h-16.375c1.8248,4.4527,4.3247,7.8049,7.5,10.031,3.2118,2.2264,7.12,3.3438,11.719,3.3438,3.6132,0.00001,7.0589-0.73283,10.344-2.1562,3.3212-1.4599,6.4966-3.6167,9.5625-6.5v16.906c-3.4673,2.0074-7.0793,3.5406-10.875,4.5625-3.7593,1.0219-7.6936,1.5312-11.781,1.5312-9.5624,0-17.618-2.3803-24.188-7.125-6.5331-4.7812-11.169-11.652-13.906-20.594h-11.875l4.8125-10.656h5.3438c-0.0365-0.51093-0.0573-1.0462-0.0937-1.5938v-4.875c0.0365-0.58392,0.0573-1.14,0.0937-1.6875h-10.156l4.8125-10.688h7.0625c2.8103-8.9783,7.4409-15.823,13.938-20.531,6.533-4.7081,14.594-7.0624,24.156-7.0625zm119.5,43.844,8.75,1.5625-2.1875,12.25c3.5436,0.92138,7.0446,2.0052,10.531,3.25,3.4865,1.2449,7.0095,2.6707,10.469,4.2812l-2.4375,13.688c-3.3282-2.1433-6.7078-3.9457-10.156-5.4062-3.4423-1.4964-6.964-2.6489-10.562-3.4688l-2.75,15.469,1.6875,0.625c8.876,3.0476,14.867,6.5687,17.938,10.594,3.1126,3.9955,4.066,9.2974,2.9062,15.875-1.1662,6.6135-4.2688,11.309-9.2812,14.094-5.0062,2.7492-11.971,3.5935-20.938,2.5312l-2.875,16.312-8.75-1.5312,2.8125-16.219c-4.4612-0.97194-8.753-2.2443-12.812-3.8125-4.0596-1.5682-7.9264-3.4478-11.656-5.625l2.5-14.125c3.7595,2.8495,7.6224,5.2021,11.625,7.0938,4.0448,1.8621,8.2387,3.2769,12.562,4.1875l2.9375-16.781-1.7188-0.65625c-8.3242-3.0243-14.003-6.4375-17.062-10.312-3.0239-3.8686-3.9774-8.8631-2.9062-14.938,1.1344-6.4338,4.1686-11.023,9.1875-13.844,5.0611-2.8506,11.721-3.7401,19.938-2.625l2.25-12.469zm-213.34,0.625-12.969,32.281,15.781-2.7812,1.8125,10.312-21.875,3.875-1.8125,5.125,0.625,3.5312,24.5-4.3438,1.875,10.469-24.531,4.3438,3.9375,22.438-20.531,3.5938-3.9375-22.438-24.5,4.3438-1.8438-10.469,24.5-4.3125-0.625-3.5625-3.4688-4.1562-21.844,3.8438-1.8438-10.344,15.75-2.7812-23.188-25.906,21.531-3.7812,19.938,22.125,11.156-27.625,21.562-3.7812zm207.12,24.031c-1.7846,0.018-3.362,0.38588-4.6875,1.125-1.7251,0.95592-2.7266,2.3763-3.0625,4.2812-0.37396,2.1207,0.0324,3.9371,1.2188,5.4062,1.1926,1.4333,3.1597,2.5572,5.9062,3.375l2.4688-14.094c-0.64434-0.0765-1.2489-0.0997-1.8438-0.0937zm5,33.312-2.625,15c3.1333,0.51545,5.589,0.2886,7.3438-0.625,1.7906-0.90725,2.8629-2.534,3.2812-4.9062,0.43091-2.4441,0.041-4.3729-1.1875-5.8125-1.2223-1.4756-3.4973-2.7011-6.8125-3.6562z" fill="#2c3e50"/>
 </g>
</svg>
