<!-- Created with Inkscape (http://www.inkscape.org/) -->
<svg xmlns:rdf="http://www.w3.org/1999/02/22-rdf-syntax-ns#" xmlns="http://www.w3.org/2000/svg" height="121.68" width="112.69" version="1.1" xmlns:cc="http://creativecommons.org/ns#" xmlns:dc="http://purl.org/dc/elements/1.1/">
 <metadata>
  <rdf:RDF>
   <cc:Work rdf:about="">
    <dc:format>image/svg+xml</dc:format>
    <dc:type rdf:resource="http://purl.org/dc/dcmitype/StillImage"/>
    <dc:title/>
   </cc:Work>
  </rdf:RDF>
 </metadata>
 <g transform="translate(-205.17516,-493.64967)">
  <path fill="#2c3e50" d="m247.16,613.05c-11.942,1.1554-23.977,2.9277-35.985,2.034-7.1908-0.59172-6.0262-9.15-5.7828-14.259,1.0849-20.283,2.4884-40.578,5.0896-60.727,0.5913-5.0324,6.794-5.2726,10.7-6.5664,1.4082-0.77238,5.4735-0.22723,3.6119-2.6209-4.7752-9.4524-3.3005-21.553,3.9669-29.339,6.2346-7.0761,16.904-9.3134,25.829-7.103,8.3625,2.9952,16.161,9.949,17.094,19.234,0.53427,3.4452,0.8259,6.9222,1.236,10.383,4.9801-0.18577,10.317-1.9164,15.024,0.2881,6.394,10.801,11.195,22.492,16.578,33.826,4.4825,10.188,9.4214,20.227,13.026,30.766,2.1237,7.3591-6.8166,9.6568-12.017,11.287-19.105,5.6912-38.53,10.536-58.37,12.798zm7.9376-93.666c4.1814-5.2946,1.2291-14.585-5.8183-15.551-7.5985-2.4156-15.192,6.4628-11.774,13.609,2.322,6.7257,11.262,8.434,16.225,3.6589l0.67173-0.77796z"/>
 </g>
</svg>
