<!-- Created with Inkscape (http://www.inkscape.org/) -->
<svg xmlns:rdf="http://www.w3.org/1999/02/22-rdf-syntax-ns#" xmlns="http://www.w3.org/2000/svg" height="421.71" width="431.62" version="1.1" xmlns:cc="http://creativecommons.org/ns#" xmlns:dc="http://purl.org/dc/elements/1.1/">
 <metadata>
  <rdf:RDF>
   <cc:Work rdf:about="">
    <dc:format>image/svg+xml</dc:format>
    <dc:type rdf:resource="http://purl.org/dc/dcmitype/StillImage"/>
    <dc:title/>
   </cc:Work>
  </rdf:RDF>
 </metadata>
 <g transform="translate(-219.68027,-309.89779)">
  <path fill="#2c3e50" d="m320.17,524.24c32.858-5.7937,65.715-11.587,98.573-17.381-11.577-65.654-23.153-131.31-34.73-196.96-55.268,11.833-106,45.842-134.85,94.7-24.814,40.753-33.979,89.941-27.439,137,32.817-5.7865,65.633-11.573,98.45-17.359zm-72.771,44.346c11.991,54.787,46.017,105.2,94.311,133.65,74.623,47.017,179.9,36.579,243.85-24.078,54.751-50.802,79.924-133.4,57.643-205.69-14.848-53.14-52.622-99.602-101.72-124.85-38.311-19.835-82.781-27.009-125.52-21.036,12.041,68.29,24.083,136.58,36.124,204.87-68.3,12.043-136.6,24.086-204.9,36.13,0.0605,0.33862,0.11357,0.67864,0.20981,1.0102zm54.617,30.447c64.817-11.584,129.63-23.198,194.44-34.793-11.557-66.472-23.754-132.83-34.686-199.41,69.537,6.653,133.17,60.716,146.26,130.17,10.319,47.921-2.4906,99.743-33.721,137.19-29.463,36.213-74.784,58.813-121.59,59.993-63.518,3.0566-126.01-35.595-153.36-92.683,0.88223-0.15556,1.7644-0.31111,2.6467-0.46669z"/>
 </g>
</svg>
