<svg xmlns:rdf="http://www.w3.org/1999/02/22-rdf-syntax-ns#" xmlns="http://www.w3.org/2000/svg" height="231.55" width="344.75" version="1.1" xmlns:cc="http://creativecommons.org/ns#" xmlns:dc="http://purl.org/dc/elements/1.1/">
 <metadata>
  <rdf:RDF>
   <cc:Work rdf:about="">
    <dc:format>image/svg+xml</dc:format>
    <dc:type rdf:resource="http://purl.org/dc/dcmitype/StillImage"/>
    <dc:title/>
   </cc:Work>
  </rdf:RDF>
 </metadata>
 <path fill="#d0d5d9" d="m237.64,188.79c-57.809,0-97.177,0.87068-108.67,9.2874-0.71771,3.2654-51.472,1.4062-60.125,1.4062v0.0312c-20.517,0.24869-36.844,4.282-36.844,9.25-1.1223,7.6485,31.308,5.9638,37.153,5.8988l36.282,0.19896c13.501-0.39025,26.614,3.2422,38.941,7.3085,18.819,5.63,53.029,9.375,92.094,9.375,59.363,0,85.846-15.059,95.369-23.064,2.6122-2.6612,2.7055-7.0671-2.425-9.5646-11-4.2882-33.969-10.127-91.778-10.127z"/>
 <g fill="#2c3e50" transform="matrix(0.94117228,0,0,0.94117228,-177.56342,-209.44818)">
  <path d="m425.1,455.8c-23.8-1.2-59.5-2-79.9-15.1-6.2-4.1-10.6-8.8-12.8-13.8-0.4-0.9-4.2-11.8-8.4-24.2-9.6-28-8.8-25.7-11.3-30.5-3.3-6.1-4.3-9.7-4.3-15.6,0-3.9,0.2-5.6,1-8.2,3.1-10.1,10.5-16.8,20.6-18.7l2.5-0.5,2.3-3.8c2.2-3.7,2.3-3.8,1.5-4.8-2.4-3-16.3-18.5-16.6-18.5-0.2,0-0.8,0.8-1.4,1.7-2.3,3.9-13.5,20.4-17.6,26-8,10.9-14.6,19.1-29.2,36.1-9.4,11-12.5,15.2-28.9,39.2-16.8,24.6-17.7,25.5-25.7,25.5-7.1,0-11.8-1.8-18.4-7-6.5-5.2-9.5-9.9-9.8-15.9s1.1-10.1,6.9-19.1c6.8-10.7,9.1-13.5,27.8-33.2,26.1-27.5,36.5-39.8,48.7-57.8,5.5-8.1,12.3-19.1,12.3-19.9,0-0.4-1.5-1.7-3.3-2.9-5.4-3.5-8.1-7.2-8.5-11.6-0.2-2.1-0.1-2.6,2.1-6.2,5.3-9.2,16.9-25.6,21.3-29.9,2.4-2.5,5.9-4,9.9-4.5,3.5-0.4,7.3,1.1,18.5,7.2,16.6,9.1,20.6,10.5,44.1,15.6,31.6,6.9,37.7,9.2,40.5,15.1,1,2.1,1.2,3.1,1.2,6.4,0,2.2-0.2,5-0.5,6.3s-0.5,2.4-0.4,2.6c0.1,0.1,2.5-0.1,5.3-0.5,7.1-1,24.1-1,31.6,0,20.7,2.8,39.3,10,52.9,20.3,8.8,6.7,18.6,18.5,25.4,30.4l2.9,5.2,5,0.2c6.5,0.2,8.2,1,12.8,5.6,5.5,5.5,8.2,12,8.2,19.9,0,4.7-0.9,8.6-3,12.7-0.8,1.6-2.3,4.5-3.3,6.5s-4.6,11.9-8.1,22.1c-11.6,33.9-11.5,33.8-16.3,38.2-27.5,19.8-60.7,19.1-97.6,19.8zm-204.7-36.2c2.4-1.2,3.3-1.9,7.4-8.6,11.8-19.2,20.8-31.4,46.9-63.1,9.4-11.4,18.1-22.7,24.5-31.9,5-7.2,12.9-19.8,12.9-20.7,0-1.6-11.5-9.9-16.1-11.6-2-1-2.2-0.9-3.6,0.6-0.8,0.8-6.1,8.6-11.8,17.3-16.7,25.2-21.1,31-34.9,45.3-35.8,37.2-47.2,52.1-47.2,61.5,0,2.5,1.9,5.4,5,7.7,6.2,4.7,12.4,5.9,17,3.6zm242.3-44c31.9-1.5,54.1-5.5,70.8-12.6,3.5-1.5,8.4-4,9.3-4.7,0.3-0.3,0-3.7-0.7-7-1.1-5.4-2.9-8.5-5.6-9.9-1.9-1-6.1-0.8-9.7,0.5-4.7,1.7-4.4,1.9-7.8-6.1-2.2-5.3-4.1-8.7-7.1-12.8-18.4-25-50.7-39.1-86.3-37.8-9.4,0.4-13.8,0.9-18.1,2.3-16,5.2-34.9,29.6-38.2,49.2-0.5,3.3-0.8,4-2,5-1.1,1-1.8,1.2-3.6,1.2-2,0-2.4-0.2-4.1-1.9-1-1-3-2.7-4.4-3.6s-4.3-3.2-6.5-5-4.1-3.3-4.3-3.3c-0.4,0-3.6,6.4-4.9,9.7l-0.8,1.9-2.8-0.4c-9.4-1.3-15.1,1.6-17.1,8.7-1.1,3.7-1.1,8.6,0,9.8,4.6,5.1,54.3,15.8,92.3,17,16.5,0.5,37.9,0.2,51.5-0.4zm-33.3-48.7c-0.5-0.6-1.4-1.9-2-3-0.9-1.8-1.1-2.6-1.1-7.8,0-6.6,0.7-9.2,3-11.1,1.7-1.4,3.1-1.4,4.8,0,4.3,3.7,4.1,18.5-0.3,22-1.5,1.2-3.3,1.1-4.4-0.1zm35-7.2c-5.7-2.2-11.5-9.4-11.5-14.5,0-2.7,1.5-4.5,3.9-4.5,3.4,0,10,5.6,12.2,10.4,2.9,6.1,0.5,10.5-4.7,8.6zm-71.7-1.6c-1.2-0.7-1.9-2.9-1.5-5,0.7-4.6,5.7-11,10.1-13.1,3.2-1.5,4.6-1.4,6.2,0.2,1,1,1.3,1.7,1.3,3.3,0,4.4-5.2,11.8-9.9,14.1-2.1,1-5,1.2-6.2,0.5zm-30.9,6.9c2.9-8.2,7.1-15.7,12.7-22.6,3.7-4.6,11.3-12.2,16.4-16.3,4.5-3.6,4.8-4.1,7.1-10.8,1.3-3.9,1.8-7.9,1.1-9.2-1-1.9-11.1-5.8-13.7-5.3-0.8,0.1-1.7,0.6-2.1,1.1s-1.8,4.2-3.1,8.3c-3.1,10.1-4.4,13.3-7,17.5-3.8,6.4-7.2,10.7-14.2,18-10.3,10.9-10.9,12.2-7.7,16.2,0.9,1.2,2.2,2.6,2.8,3.1,1.9,1.7,5.9,4.2,6.2,3.8,0.2-0.2,0.8-1.9,1.5-3.9z"/>
 </g>
</svg>
